<?xml version="1.0" encoding="UTF-8"?>
<svg id="Layer_1" data-name="Layer 1" xmlns="http://www.w3.org/2000/svg" viewBox="0 0 3608 994">
  <path d="M638.9,229.12h0c-69.8,0-126.39,56.59-126.39,126.39v408.71h252.78v-408.71c0-69.8-56.59-126.39-126.39-126.39"></path>
  <rect x="229.73" y="511.25" width="253.43" height="252.97"></rect>
  <rect x="794.64" y="229.12" width="253.43" height="535.1"></rect>
  <path d="M3340.55,709.53c-6.37,11.23-20.23,19.85-35.96,19.85-28.84,0-45.32-21.72-45.32-51.31s16.49-51.32,45.32-51.32c15.73,0,29.59,8.62,35.96,19.85v62.92ZM3340.55,752.6c0,31.09-13.11,47.94-40.82,47.94-20.6,0-33.71-9.36-37.46-27.71h-36.33c4.12,36.33,31.46,58.43,73.79,58.43s78.27-25.1,78.27-81.28v-152.43h-37.45v13.49c-7.49-8.99-23.6-17.23-42.32-17.23-49.07,0-77.15,40.45-77.15,84.27s28.09,84.26,77.15,84.26c18.73,0,34.83-8.23,42.32-17.23v7.49ZM3047.29,763.84h37.46v-109.36c4.12-16.49,18.73-26.6,34.83-26.6,21.35,0,31.46,13.49,31.46,34.08v101.87h37.46v-108.24c0-36.7-20.98-61.79-58.81-61.79-19.47,0-35.95,8.98-44.94,19.48v-15.74h-37.46v166.29ZM3005.34,547.36c0-12.74-10.86-22.85-23.22-22.85s-23.22,10.11-23.22,22.85,10.86,22.85,23.22,22.85,23.22-10.11,23.22-22.85M3000.85,597.54h-37.46v166.29h37.46v-166.29ZM2870.14,763.84l63.3-166.29h-38.96l-42.7,121.73-43.06-121.73h-40.07l62.92,166.29h38.57ZM2743.18,547.36c0-12.74-10.86-22.85-23.22-22.85s-23.22,10.11-23.22,22.85,10.86,22.85,23.22,22.85,23.22-10.11,23.22-22.85M2738.69,597.54h-37.46v166.29h37.46v-166.29ZM2514.35,763.84h149.44v-34.83h-110.49v-195.13h-38.95v229.96ZM2319.22,827.5l87.65-229.96h-38.58l-42.7,122.48-43.44-122.48h-40.08l64.42,170.78-23.6,59.18h36.33ZM2075.02,763.84h37.46v-109.36c4.12-16.49,18.73-26.6,34.83-26.6,21.35,0,31.46,13.49,31.46,34.08v101.87h37.45v-108.24c0-36.7-20.97-61.79-58.8-61.79-19.47,0-35.96,8.98-44.94,19.48v-92.89h-37.46v243.45ZM1958.17,718.9c0,32.95,20.98,48.69,50.57,48.69,11.61,0,21.72-2.25,28.09-5.99v-34.09c-5.24,3.75-13.85,6.74-21.34,6.74-12.36,0-19.85-5.99-19.85-19.48v-86.14h37.46v-31.09h-37.46v-44.56h-37.46v44.56h-26.21v31.09h26.21v90.26ZM1903.12,520.39h-37.46v243.45h37.46v-243.45ZM1785.89,719.65c-4.12,10.48-19.1,16.85-34.08,16.85-16.85,0-34.46-7.12-34.46-23.97s17.6-23.6,34.46-23.6c14.98,0,29.96,6.37,34.08,16.85v13.86ZM1821.47,763.84v-108.98c0-37.83-24.72-61.05-66.67-61.05-34.08,0-60.3,21.34-65.17,49.81h35.96c4.12-11.61,13.49-17.97,28.46-17.97,21.35,0,31.84,13.1,31.84,29.95v13.49c-6.74-4.87-23.6-10.11-38.58-10.11-36.7,0-64.79,22.09-64.79,53.56,0,34.08,28.1,54.31,62.18,54.31,18.73,0,35.58-6.74,41.2-12.36v9.36h35.58ZM1587.02,625.26c22.85,0,34.46,16.48,34.83,36.7h-75.28c4.49-23.97,19.84-36.7,40.45-36.7M1622.98,712.15c-4.12,16.1-17.6,23.97-35.58,23.97-23.97,0-40.82-17.6-41.95-46.82h113.48v-13.49c0-48.69-25.47-82.02-72.29-82.02s-77.9,37.46-77.9,87.26,32.21,86.52,78.65,86.52c40.07,0,64.42-22.48,70.04-55.43h-34.46ZM1432.72,533.88v94.76h-115.73v-94.76h-38.96v229.96h38.96v-100.75h115.73v100.75h38.95v-229.96h-38.95Z"></path>
  <path d="M2868.63,293.36c-3.74-1.13-8.23-2.25-14.6-2.25-20.6,0-37.46,13.49-44.95,29.96v-26.6h-18.72v166.29h18.72v-116.1c7.87-21.34,23.97-35.96,44.2-35.96,5.99,0,10.86,1.13,15.35,3v-18.35ZM2730.44,377.62c0,41.95-21.72,70.04-55.06,70.04s-54.67-28.1-54.67-70.04,21.72-70.04,54.67-70.04,55.06,28.09,55.06,70.04M2749.16,377.62c0-51.31-29.59-86.51-73.79-86.51s-73.4,35.21-73.4,86.51,29.59,86.52,73.4,86.52,73.79-35.21,73.79-86.52M2592.61,217.32c-5.62-2.24-11.61-3.37-18.73-3.37-26.96,0-46.82,20.23-46.82,50.57v29.95h-26.96v16.11h26.96v150.18h18.35v-150.18h38.96v-16.11h-38.96v-28.09c0-23.22,12.74-35.96,30.34-35.96,6.37,0,11.99,1.5,16.85,4.13v-17.24ZM2327.45,307.58c32.95,0,47.57,27.72,48.69,56.93h-103c3.74-34.83,24.35-56.93,54.31-56.93M2374.27,412.46c-5.24,22.09-22.85,35.21-46.44,35.21-32.21,0-55.06-26.22-55.43-68.54h122.47v-6.74c0-47.19-23.22-81.27-67.41-81.27s-73.41,37.08-73.41,86.51,29.96,86.52,73.79,86.52c34.83,0,58.05-20.98,64.42-51.68h-17.98ZM2164.15,422.19c0,28.46,16.1,41.95,40.45,41.95,8.99,0,18.35-2.25,24.72-5.62v-17.6c-6.37,3.74-14.61,6.37-22.85,6.37-15.73,0-23.97-8.24-23.97-26.97v-109.73h43.07v-16.11h-43.07v-42.69h-18.35v42.69h-28.09v16.11h28.09v111.61ZM2103.48,294.47h-18.35v116.48c-8.24,19.84-26.6,35.96-49.44,35.96-29.59,0-42.7-19.1-42.7-44.95v-107.49h-18.34v110.12c0,35.21,19.84,59.55,57.68,59.55,23.6,0,42.7-14.24,52.81-29.96v26.59h18.35v-166.29ZM1874.27,422.19c0,28.46,16.1,41.95,40.45,41.95,8.98,0,18.35-2.25,24.72-5.62v-17.6c-6.37,3.74-14.61,6.37-22.85,6.37-15.73,0-23.97-8.24-23.97-26.97v-109.73h43.07v-16.11h-43.07v-42.69h-18.34v42.69h-28.1v16.11h28.1v111.61ZM1816.97,243.92c0-6.74-5.62-12.74-12.74-12.74s-12.74,5.99-12.74,12.74c0,7.12,5.62,12.74,12.74,12.74s12.74-5.62,12.74-12.74M1813.6,294.47h-18.73v166.29h18.73v-166.29ZM1691.13,422.19c0,28.46,16.1,41.95,40.45,41.95,8.99,0,18.35-2.25,24.72-5.62v-17.6c-6.37,3.74-14.6,6.37-22.85,6.37-15.73,0-23.97-8.24-23.97-26.97v-109.73h43.07v-16.11h-43.07v-42.69h-18.35v42.69h-28.09v16.11h28.09v111.61ZM1518.85,417.7c5.24,29.21,31.46,46.44,64.79,46.44s58.8-17.23,58.8-47.19c0-21.73-13.11-37.83-41.57-45.32l-29.59-8.23c-19.85-5.62-29.96-11.23-29.96-26.97,0-19.47,17.6-29.21,38.21-29.21,23.6,0,37.07,9.74,43.44,29.21h18.35c-5.99-27.71-27.34-45.31-61.79-45.31-30.71,0-56.18,17.23-56.18,46.07,0,23.97,15.73,35.58,39.32,41.95l31.09,8.62c20.98,5.99,30.71,15.35,30.71,29.59,0,20.97-17.98,30.71-40.45,30.71s-39.7-10.12-46.44-30.34h-18.73ZM1353.31,460.77h18.73v-116.48c8.24-19.85,26.97-35.96,49.82-35.96,29.59,0,42.7,19.1,42.7,44.95v107.48h18.34v-110.11c0-35.21-19.84-59.55-57.68-59.55-23.6,0-43.07,14.24-53.18,29.96v-26.6h-18.73v166.29ZM1297.14,230.81h-19.1v229.96h19.1v-229.96Z"></path>
  <path d="M482.83,355.51c0,69.8-56.59,126.39-126.39,126.39s-126.38-56.59-126.38-126.39,56.59-126.39,126.38-126.39,126.39,56.59,126.39,126.39"></path>
</svg>
